<svg xmlns="http://www.w3.org/2000/svg" xml:space="preserve" width="500" height="500"><g><path fill="#91c0f8" stroke="#fff" stroke-linejoin="round" stroke-width="7.336799999999999" d="M182.2722 191.4656c0-28.1244 22.6218-50.1348 50.1348-50.1348 6.114 0 11.6166 1.2228 17.1192 3.057 1.8342-20.7876 18.9534-37.9068 40.3524-37.9068 22.6218 0 40.9638 18.342 40.9638 40.9638 0 4.8912-1.2228 9.7824-2.4456 14.0622 1.8342-.6114 4.2798-.6114 6.114-.6114 22.6218 0 40.9638 18.342 40.9638 40.9638 0 22.0104-17.7306 40.3524-39.741 40.9638H230.5728c-26.9016-3.057-48.3006-24.456-48.3006-51.3576z"/><path fill="#57a0ee" stroke="#fff" stroke-linejoin="round" stroke-width="12.228" d="M89.747 305.186c0-46.874 37.703-83.558 83.558-83.558 10.19 0 19.361 2.038 28.532 5.095 3.057-34.646 31.589-63.178 67.254-63.178 37.703 0 68.273 30.57 68.273 68.273 0 8.152-2.038 16.304-4.076 23.437 3.057-1.019 7.133-1.019 10.19-1.019 37.703 0 68.273 30.57 68.273 68.273 0 36.684-29.551 67.254-66.235 68.273H170.248c-44.836-5.095-80.501-40.76-80.501-85.596z"/></g></svg>